<?xml version="1.0" encoding="utf-8"?>
<!-- Generator: Adobe Illustrator 21.1.0, SVG Export Plug-In . SVG Version: 6.00 Build 0)  -->
<svg version="1.1" id="Слой_1" xmlns="http://www.w3.org/2000/svg" xmlns:xlink="http://www.w3.org/1999/xlink" x="0px" y="0px"
	 viewBox="0 0 250 70" style="enable-background:new 0 0 250 70;" xml:space="preserve">
<style type="text/css">
	.st0{fill:#F9F9F9;}
	.st1{fill:#3489DF;}
</style>
<g>
	<g>
		<path class="st0" d="M3.1,30.2h5.3c0.5,0,0.9,0.4,0.9,0.9V39c0,1.4,0.1,2.4,0.4,2.9c0.3,0.5,0.7,0.8,1.4,0.8c0.4,0,0.8,0,1.1-0.1
			c0.4-0.1,0.8-0.5,0.8-0.9V31.1c0-0.5,0.4-0.9,0.9-0.9h5.3c0.5,0,0.9,0.4,0.9,0.9v29c0,0.5-0.4,0.9-0.9,0.9H14
			c-0.5,0-0.9-0.4-0.9-0.9V49c0-0.6-0.5-1-1.1-0.9c-1,0.1-2,0.2-3.1,0.2c-2.3,0-3.9-0.6-5-1.7c-1.1-1.1-1.7-3-1.7-5.7v-9.8
			C2.2,30.6,2.6,30.2,3.1,30.2z"/>
		<path class="st0" d="M28,30.2h4.7c0.5,0,0.9,0.4,0.9,1l-0.3,11.7c0,1.1,1.5,1.3,1.8,0.3l3.3-12.3c0.1-0.4,0.5-0.7,0.9-0.7h6.7
			c0.5,0,0.9,0.4,0.9,0.9v29c0,0.5-0.4,0.9-0.9,0.9h-4.6c-0.5,0-0.9-0.4-0.9-1l0.3-11.1c0-1.1-1.5-1.3-1.8-0.3l-3.2,11.7
			C35.7,60.7,35.4,61,35,61H28c-0.5,0-0.9-0.4-0.9-0.9v-29C27.1,30.6,27.5,30.2,28,30.2z"/>
		<path class="st0" d="M70,40.6h-4.7c-0.5,0-0.9-0.4-0.9-0.9v-2.2c0-0.9-0.1-1.4-0.4-1.7c-0.2-0.3-0.7-0.4-1.4-0.4
			c-0.7,0-1.2,0.1-1.4,0.4c-0.2,0.3-0.3,0.9-0.3,1.7v16.3c0,0.9,0.1,1.5,0.3,1.7c0.2,0.3,0.7,0.4,1.4,0.4c0.7,0,1.2-0.1,1.4-0.4
			c0.2-0.3,0.4-0.9,0.4-1.7v-3.3c0-0.5,0.4-0.9,0.9-0.9H70c0.5,0,0.9,0.4,0.9,0.9v2.3c0,3.5-0.5,5.8-1.6,7c-1,1.1-3.3,1.7-6.6,1.7
			c-3.8,0-6.3-0.6-7.5-1.7c-1.2-1.1-1.8-3.4-1.8-7V38.4c0-3.5,0.6-5.8,1.8-7c1.2-1.1,3.7-1.7,7.5-1.7c3.4,0,5.6,0.6,6.6,1.8
			c1,1.2,1.5,3.5,1.5,6.9v1.2C70.9,40.2,70.5,40.6,70,40.6z"/>
		<path class="st0" d="M76,30.2H91c0.5,0,0.9,0.4,0.9,0.9v3.6c0,0.5-0.4,0.9-0.9,0.9h-3c-0.5,0-0.9,0.4-0.9,0.9v23.5
			c0,0.5-0.4,0.9-0.9,0.9h-5.3c-0.5,0-0.9-0.4-0.9-0.9V36.5c0-0.5-0.4-0.9-0.9-0.9h-3c-0.5,0-0.9-0.4-0.9-0.9v-3.6
			C75.1,30.6,75.5,30.2,76,30.2z"/>
		<path class="st0" d="M105.9,29.8c3.8,0,6.3,0.6,7.5,1.7c1.2,1.1,1.8,3.5,1.8,6.9v14.3c0,1.9-0.1,3.4-0.3,4.5
			c-0.2,1.1-0.7,1.9-1.4,2.6c-0.7,0.7-1.7,1.1-2.8,1.3c-1.1,0.2-2.7,0.3-4.7,0.3c-3.8,0-6.3-0.5-7.5-1.6c-1.2-1.1-1.8-3.4-1.8-7
			V38.4c0-3.5,0.6-5.8,1.8-6.9C99.5,30.4,102,29.8,105.9,29.8z M107.4,35.7c-0.2-0.3-0.8-0.5-1.5-0.5c-0.8,0-1.3,0.2-1.5,0.5
			c-0.3,0.3-0.4,0.9-0.4,1.8v16.3c0,0.9,0.1,1.4,0.4,1.7c0.3,0.3,0.8,0.5,1.5,0.5c0.8,0,1.3-0.1,1.5-0.4c0.2-0.3,0.4-0.9,0.4-1.7
			V37.4C107.7,36.6,107.6,36,107.4,35.7z"/>
		<path class="st1" d="M124.1,30.2H139c0.5,0,0.9,0.4,0.9,0.9v23.5c0,0.5,0.4,0.9,0.9,0.9h0.1c0.5,0,0.9,0.4,0.9,0.9v9.7
			c0,0.5-0.4,0.9-0.9,0.9h-4.6c-0.5,0-0.9-0.4-0.9-0.9v-4.3c0-0.5-0.4-0.9-0.9-0.9h-7.2c-0.5,0-0.9,0.4-0.9,0.9v4.3
			c0,0.5-0.4,0.9-0.9,0.9h-4.6c-0.5,0-0.9-0.4-0.9-0.9v-9.7c0-0.5,0.4-0.9,0.9-0.9l0,0c0.4,0,0.7-0.2,0.9-0.6c0.6-1.5,1-2.9,1.2-4.2
			c0.2-1.4,0.4-3.5,0.4-6.4V31.1C123.2,30.6,123.6,30.2,124.1,30.2z M131.8,35.6h-1.1c-0.5,0-0.9,0.4-0.9,0.9v8.8
			c0,2.6-0.1,4.6-0.3,5.9c-0.2,0.9-0.5,2-0.9,3.1c-0.2,0.6,0.2,1.3,0.9,1.3h2.5c0.5,0,0.9-0.4,0.9-0.9V36.5
			C132.7,36,132.3,35.6,131.8,35.6z"/>
		<path class="st1" d="M155.8,29.8c3.8,0,6.3,0.6,7.5,1.7c1.2,1.1,1.8,3.5,1.8,6.9v14.3c0,1.9-0.1,3.4-0.3,4.5
			c-0.2,1.1-0.7,1.9-1.4,2.6c-0.7,0.7-1.7,1.1-2.8,1.3c-1.1,0.2-2.7,0.3-4.7,0.3c-3.8,0-6.3-0.5-7.5-1.6c-1.2-1.1-1.8-3.4-1.8-7
			V38.4c0-3.5,0.6-5.8,1.8-6.9C149.5,30.4,152,29.8,155.8,29.8z M157.4,35.7c-0.2-0.3-0.8-0.5-1.5-0.5c-0.8,0-1.3,0.2-1.5,0.5
			c-0.3,0.3-0.4,0.9-0.4,1.8v16.3c0,0.9,0.1,1.4,0.4,1.7c0.3,0.3,0.8,0.5,1.5,0.5c0.8,0,1.3-0.1,1.5-0.4c0.2-0.3,0.4-0.9,0.4-1.7
			V37.4C157.7,36.6,157.6,36,157.4,35.7z"/>
		<path class="st1" d="M172.4,30.2h8.7c0.5,0,0.8,0.3,0.9,0.8l3.1,18.2c0.2,1,1.7,1,1.8,0l3.2-18.3c0.1-0.4,0.5-0.8,0.9-0.8h8.5
			c0.5,0,0.9,0.4,0.9,0.9v29c0,0.5-0.4,0.9-0.9,0.9h-4.6c-0.5,0-0.9-0.4-0.9-0.9l0.2-13.9c0-1.1-1.6-1.3-1.9-0.2l-2.6,14.2
			c-0.1,0.4-0.5,0.8-0.9,0.8h-6.4c-0.5,0-0.8-0.3-0.9-0.8l-2.4-13.7c-0.2-1.1-1.9-1-1.9,0.2l0.3,13.3c0,0.5-0.4,1-0.9,1h-4.3
			c-0.5,0-0.9-0.4-0.9-0.9v-29C171.5,30.6,171.9,30.2,172.4,30.2z"/>
		<path class="st0" d="M223.1,38.1h-4.6c-0.5,0-0.9-0.4-0.9-0.9v-0.3c0-0.9-0.1-1.5-0.4-1.8c-0.2-0.3-0.7-0.5-1.4-0.5
			s-1.2,0.2-1.4,0.5c-0.2,0.3-0.4,0.9-0.4,1.7v4.6c0,0.7,0.8,1.2,1.4,0.8c1.1-0.6,2.3-0.9,3.6-0.9c2.3,0,3.8,0.5,4.5,1.6
			c0.7,1.1,1.1,3.1,1.1,6v3.9c0,3.4-0.6,5.7-1.8,6.9c-1.2,1.2-3.6,1.7-7,1.7c-3.5,0-5.8-0.6-7-1.7c-1.2-1.2-1.8-3.5-1.8-6.9V36.9
			c0-2.9,0.6-4.7,1.8-5.7c1.2-0.9,3.4-1.4,6.8-1.4c3.3,0,5.5,0.4,6.7,1.3c1.2,0.9,1.8,2.7,1.8,5.5v0.6
			C224.1,37.7,223.7,38.1,223.1,38.1z M217.3,46.7c-0.2-0.3-0.7-0.5-1.4-0.5s-1.2,0.2-1.4,0.5c-0.2,0.3-0.3,0.9-0.3,1.7V54
			c0,0.9,0.1,1.4,0.3,1.7c0.2,0.3,0.7,0.4,1.4,0.4s1.2-0.2,1.4-0.5c0.2-0.3,0.3-0.9,0.3-1.7v-5.6C217.7,47.5,217.5,47,217.3,46.7z"
			/>
		<path class="st0" d="M236.4,39.1h-4.5c-0.5,0-0.9-0.4-0.9-0.9v-1c0-3,0.6-4.9,1.7-5.9c1.2-1,3.4-1.5,6.6-1.5
			c3.3,0,5.5,0.5,6.6,1.5c1.1,1,1.7,3,1.7,5.9v2.5c0,1.6-0.3,2.7-0.8,3.5c-0.2,0.3-0.4,0.5-0.7,0.7c-0.6,0.4-0.6,1.2,0,1.6
			c0.4,0.2,0.7,0.5,1,0.9c0.6,0.8,0.9,2.1,0.9,3.9v3.8c0,3-0.6,4.9-1.8,5.9c-1.2,1-3.5,1.5-6.9,1.5c-3.4,0-5.7-0.5-6.9-1.5
			c-1.2-1-1.8-3-1.8-5.9v-2.4c0-0.5,0.4-0.9,0.9-0.9h4.9c0.5,0,0.9,0.4,0.9,0.9V54c0,0.9,0.1,1.4,0.4,1.7c0.3,0.3,0.7,0.4,1.5,0.4
			c0.7,0,1.2-0.1,1.4-0.4c0.2-0.3,0.4-0.9,0.4-1.7v-4.2c0-1-0.2-1.6-0.6-1.9c-0.4-0.3-1.2-0.4-2.5-0.4h-1.6c-0.5,0-0.9-0.4-0.9-0.9
			v-3.2c0-0.5,0.4-0.9,0.9-0.9h1.5c1.3,0,2.1-0.2,2.4-0.6c0.4-0.4,0.6-1.1,0.6-2.2v-2.6c0-0.9-0.1-1.4-0.3-1.7
			c-0.2-0.3-0.7-0.5-1.4-0.5s-1.1,0.2-1.4,0.5c-0.2,0.3-0.3,0.9-0.3,1.7v1C237.3,38.7,236.9,39.1,236.4,39.1z"/>
	</g>
	<path class="st1" d="M121.2,19l16.7-5.9c0.4-0.1,0.6-0.5,0.6-0.9l0-7.2c0-0.8,0.6-1.4,1.4-1.4h1.7c0.8,0,1.4,0.6,1.4,1.4l0,5.6
		c0,0.3,0.3,0.5,0.6,0.4L161,5c0.5-0.2,1-0.2,1.4,0l40.8,14.1c1.1,0.4,1.7,1.5,1.4,2.6l-0.1,0.2c-0.3,1.2-1.6,1.9-2.8,1.5
		l-38.9-13.2c-0.4-0.2-0.9-0.2-1.4,0l-38.9,13c-1.1,0.4-2.3-0.2-2.7-1.3l0,0C119.5,20.7,120.1,19.4,121.2,19z"/>
</g>
</svg>
