<?xml version="1.0" encoding="utf-8"?>
<!-- Generator: Adobe Illustrator 21.1.0, SVG Export Plug-In . SVG Version: 6.00 Build 0)  -->
<svg version="1.1" id="Слой_1" xmlns="http://www.w3.org/2000/svg" xmlns:xlink="http://www.w3.org/1999/xlink" x="0px" y="0px"
	 viewBox="0 0 250 70" style="enable-background:new 0 0 250 70;" xml:space="preserve">
<style type="text/css">
	.st0{fill:#3489DF;}
	.st1{fill:#1C5C9A;}
</style>
<g>
	<g>
		<path class="st0" d="M3.1368194,30.1535282h5.3361144c0.5158472,0,0.9340248,0.4181767,0.9340248,0.9340248v7.916544
			c0,1.3997192,0.1368198,2.3535728,0.4116011,2.8611069c0.2738676,0.5082207,0.7409735,0.7615318,1.3994904,0.7615318
			c0.4242182,0,0.8015728-0.027195,1.1322365-0.0817261c0.4441662-0.0732498,0.7615404-0.4694786,0.7615404-0.9196434V31.087553
			c0-0.5158482,0.4181767-0.9340248,0.9340239-0.9340248h5.335886c0.5158482,0,0.9340248,0.4181767,0.9340248,0.9340248v28.9650402
			c0,0.5158501-0.4181767,0.9340248-0.9340248,0.9340248h-5.335886c-0.5158472,0-0.9340239-0.4181747-0.9340239-0.9340248
			V48.9660835c0-0.5715904-0.5068521-1.0043106-1.0723009-0.9207382c-0.9979544,0.1474953-2.0401936,0.2211494-3.126626,0.2211494
			c-2.2505589,0-3.9314542-0.5557289-5.0429144-1.6671906c-1.1114604-1.1114578-1.6671906-3.025795-1.6671906-5.7427711v-9.76898
			C2.2027948,30.5717049,2.6209717,30.1535282,3.1368194,30.1535282z"/>
		<path class="st0" d="M28.0414352,30.1535282h4.6526184c0.5254135,0,0.9474449,0.4332161,0.9337044,0.9584484
			l-0.3067589,11.7272377c-0.0288849,1.1043625,1.5454903,1.3353653,1.8350716,0.2692604L38.4877586,30.84272
			c0.1105003-0.4068146,0.4798088-0.6891918,0.9013634-0.6891918h6.7496643c0.5158501,0,0.9340248,0.4181767,0.9340248,0.9340248
			v28.9650402c0,0.5158501-0.4181747,0.9340248-0.9340248,0.9340248h-4.6499634
			c-0.5264244,0-0.9488525-0.4348221-0.9336319-0.9610291l0.321991-11.1322136
			c0.0319672-1.1052437-1.5438232-1.3395081-1.8347511-0.2727585l-3.1847725,11.6777306
			c-0.1108246,0.4063606-0.4799156,0.6882706-0.9011154,0.6882706h-6.9151077c-0.5158482,0-0.9340248-0.4181747-0.9340248-0.9340248
			V31.087553C27.1074104,30.5717049,27.5255871,30.1535282,28.0414352,30.1535282z"/>
		<path class="st0" d="M70.0143967,40.5685005h-4.6771393c-0.5158463,0-0.934021-0.4181747-0.934021-0.9340248v-2.1945534
			c0-0.8503838-0.1235733-1.4202766-0.370491-1.7083054c-0.2471428-0.2882576-0.7274971-0.4323883-1.4408302-0.4323883
			c-0.7140198,0-1.1804428,0.1377335-1.3997192,0.411602c-0.2199631,0.2747803-0.3293724,0.8510704-0.3293724,1.7290916v16.3016472
			c0,0.878479,0.1094093,1.4547653,0.3293724,1.7288628c0.2192764,0.2745514,0.6856995,0.4115982,1.3997192,0.4115982
			c0.7133331,0,1.1936874-0.1441269,1.4408302-0.4321556c0.2469177-0.2882576,0.370491-0.8574638,0.370491-1.7083054v-3.3060188
			c0-0.5158463,0.4181747-0.934021,0.934021-0.934021h4.6771393c0.5158539,0,0.9340286,0.4181747,0.9340286,0.934021v2.2767868
			c0,3.5132294-0.5214691,5.8320847-1.5641785,6.9570198c-1.0433884,1.1256218-3.2521515,1.687748-6.6276474,1.687748
			c-3.7603722,0-6.2507629-0.5557289-7.4716339-1.6671906c-1.2215576-1.1114616-1.8318787-3.437397-1.8318787-6.9775772V38.4278107
			c0-3.5125427,0.5968437-5.831398,1.7907639-6.9570217c1.1936874-1.1249371,3.6977882-1.687748,7.5127487-1.687748
			c3.4024506,0,5.6189728,0.5904503,6.6482086,1.7702065c1.0289993,1.180212,1.5436172,3.4721127,1.5436172,6.8745632v1.206665
			C70.9484253,40.1503258,70.5302505,40.5685005,70.0143967,40.5685005z"/>
		<path class="st0" d="M75.9984589,30.1535282h15.0510025c0.5158463,0,0.9340286,0.4181767,0.9340286,0.9340248v3.5659084
			c0,0.5158501-0.4181824,0.9340248-0.9340286,0.9340248h-2.9893951c-0.5158463,0-0.934021,0.4181786-0.934021,0.9340248v23.5310822
			c0,0.5158501-0.4181824,0.9340248-0.9340286,0.9340248h-5.3358841c-0.5158463,0-0.934021-0.4181747-0.934021-0.9340248V36.5215111
			c0-0.5158463-0.4181824-0.9340248-0.9340286-0.9340248h-2.989624c-0.5158463,0-0.934021-0.4181747-0.934021-0.9340248V31.087553
			C75.0644379,30.5717049,75.4826126,30.1535282,75.9984589,30.1535282z"/>
		<path class="st0" d="M105.8564148,29.783041c3.7594604,0,6.2500763,0.5698929,7.4716339,1.7085342
			c1.2206421,1.1390972,1.8318787,3.4513302,1.8318787,6.9362354v14.2845268c0,1.9211845-0.1171799,3.4168396-0.3499298,4.4869576
			c-0.2336655,1.070343-0.7140198,1.9348907-1.440834,2.5936356c-0.7275009,0.6585159-1.653717,1.0842781-2.7786484,1.2759171
			c-1.1256256,0.1918678-2.7035065,0.2882576-4.7341003,0.2882576c-3.8149643,0-6.3259125-0.5486488-7.5333099-1.6466331
			c-1.2080765-1.0972977-1.8113174-3.4303131-1.8113174-6.9981346V38.4278107c0-3.4849052,0.603241-5.7971382,1.8113174-6.9362354
			C99.5305023,30.3529339,102.0414505,29.783041,105.8564148,29.783041z M107.3794708,35.6697159
			c-0.2469101-0.301506-0.7551346-0.4527168-1.523056-0.4527168c-0.7686157,0-1.283226,0.1512108-1.5436172,0.4527168
			c-0.2613068,0.3024216-0.3912735,0.8921852-0.3912735,1.7702065v16.3016472c0,0.8508415,0.1299667,1.4271278,0.3912735,1.7288628
			c0.2603912,0.3024178,0.7750015,0.452713,1.5436172,0.452713c0.7679214,0,1.2761459-0.143898,1.523056-0.4321556
			c0.2471466-0.2880325,0.370491-0.8709412,0.370491-1.7494202V37.4399223
			C107.7499619,36.5619011,107.6266174,35.9721375,107.3794708,35.6697159z"/>
		<path class="st1" d="M124.121315,30.1535282h14.8452072c0.5158386,0,0.934021,0.4181767,0.934021,0.9340248v23.5310841
			c0,0.5158463,0.4181671,0.934021,0.934021,0.934021h0.1079559c0.5158539,0,0.934021,0.4181786,0.934021,0.9340248v9.6994972
			c0,0.5158539-0.4181671,0.9340286-0.934021,0.9340286h-4.6360321c-0.5158386,0-0.934021-0.4181747-0.934021-0.9340286v-4.2655373
			c0-0.5158463-0.4181671-0.9340248-0.934021-0.9340248h-7.22966c-0.5158539,0-0.9340286,0.4181786-0.9340286,0.9340248v4.2655373
			c0,0.5158539-0.4181747,0.9340286-0.934021,0.9340286h-4.6360321c-0.5158463,0-0.934021-0.4181747-0.934021-0.9340286v-9.6994972
			c0-0.5158463,0.4181747-0.9340248,0.934021-0.9340248l0,0c0.3808212,0,0.7275009-0.2310066,0.8672562-0.5852509
			c0.6102753-1.546833,1.0252762-2.9366646,1.2448425-4.1691742c0.2471466-1.3855591,0.370491-3.5198555,0.370491-6.4012909
			V31.087553C123.187294,30.5717049,123.6054688,30.1535282,124.121315,30.1535282z M131.7625732,35.5874863h-1.1369476
			c-0.5158539,0-0.9340363,0.4181786-0.9340363,0.9340248v8.7810898c0,2.6345215-0.1171722,4.5899696-0.3499298,5.8661194
			c-0.1713409,0.9367485-0.4720612,1.9731903-0.9020233,3.1095047c-0.2325745,0.614666,0.2113647,1.2744331,0.8685608,1.2744331
			h2.4543762c0.5158539,0,0.9340363-0.4181747,0.9340363-0.934021v-18.097126
			C132.6966095,36.0056648,132.2784271,35.5874863,131.7625732,35.5874863z"/>
		<path class="st1" d="M155.8312378,29.783041c3.7594604,0,6.2500916,0.5698929,7.4716492,1.7085342
			c1.2206421,1.1390972,1.8318634,3.4513302,1.8318634,6.9362354v14.2845268c0,1.9211845-0.1171722,3.4168396-0.3499298,4.4869576
			c-0.2336578,1.070343-0.7140198,1.9348907-1.4408264,2.5936356c-0.7274933,0.6585159-1.653717,1.0842781-2.778656,1.2759171
			c-1.1256104,0.1918678-2.7034912,0.2882576-4.7341003,0.2882576c-3.8149567,0-6.3259125-0.5486488-7.5332947-1.6466331
			c-1.2080841-1.0972977-1.8113251-3.4303131-1.8113251-6.9981346V38.4278107c0-3.4849052,0.603241-5.7971382,1.8113251-6.9362354
			C149.5053253,30.3529339,152.0162811,29.783041,155.8312378,29.783041z M157.3543091,35.6697159
			c-0.2469177-0.301506-0.7551422-0.4527168-1.5230713-0.4527168c-0.7686005,0-1.2832184,0.1512108-1.5436096,0.4527168
			c-0.2613068,0.3024216-0.3912811,0.8921852-0.3912811,1.7702065v16.3016472c0,0.8508415,0.1299744,1.4271278,0.3912811,1.7288628
			c0.2603912,0.3024178,0.7750092,0.452713,1.5436096,0.452713c0.7679291,0,1.2761536-0.143898,1.5230713-0.4321556
			c0.2471466-0.2880325,0.3704834-0.8709412,0.3704834-1.7494202V37.4399223
			C157.7247925,36.5619011,157.6014557,35.9721375,157.3543091,35.6697159z"/>
		<path class="st1" d="M172.4492798,30.1535282h8.6919098c0.455719,0,0.8449097,0.3288803,0.920929,0.7782192l3.0859375,18.2404022
			c0.1748199,1.0332985,1.6572418,1.0394058,1.8405609,0.0075836l3.2434387-18.2555676
			c0.0792084-0.445837,0.4668121-0.7706375,0.9196167-0.7706375h8.5335693c0.5158386,0,0.934021,0.4181767,0.934021,0.9340248
			v28.9650402c0,0.5158501-0.4181824,0.9340248-0.934021,0.9340248h-4.5798492
			c-0.5216064,0-0.9421234-0.4272079-0.9338989-0.9487534l0.2187195-13.8691788
			c0.0180817-1.1463852-1.6463318-1.3106384-1.8526764-0.1828308l-2.6044769,14.2348442
			c-0.0811768,0.4436455-0.4677734,0.7659187-0.9187775,0.7659187h-6.3837891c-0.4526215,0-0.8401031-0.3245201-0.9195404-0.7701111
			l-2.4374847-13.6740417c-0.2019958-1.1331177-1.8751831-0.9691772-1.8533936,0.1815987l0.2520905,13.3108444
			c0.009903,0.5226746-0.411087,0.9517097-0.9338531,0.9517097h-4.289032c-0.5158386,0-0.934021-0.4181747-0.934021-0.9340248
			V31.087553C171.5152588,30.5717049,171.9334412,30.1535282,172.4492798,30.1535282z"/>
		<path class="st0" d="M223.1492462,38.0984383h-4.5535736c-0.5158386,0-0.934021-0.4181786-0.934021-0.9340248v-0.3418922
			c0-0.8780251-0.1237946-1.4680176-0.3709412-1.7702065c-0.2466888-0.3017349-0.713562-0.4529457-1.3997192-0.4529457
			s-1.1521149,0.1582909-1.3992615,0.4735031c-0.2471466,0.3158951-0.3704834,0.8992653-0.3704834,1.749649v4.5768585
			c0,0.7122536,0.7640381,1.1581993,1.3871307,0.8131332c1.1363068-0.629303,2.3342285-0.9441528,3.5941162-0.9441528
			c2.3051453,0,3.8208923,0.5285492,4.5486145,1.5847359c0.7268219,1.0568695,1.0909119,3.0534325,1.0909119,5.9896889v3.8695526
			c0,3.4309998-0.6112366,5.7290688-1.8318787,6.8951187c-1.2215576,1.1669655-3.5609741,1.749649-7.0191498,1.749649
			c-3.4572601,0-5.7975922-0.5826836-7.018692-1.749649c-1.2210999-1.16605-1.8318787-3.464119-1.8318787-6.8951187V36.8636322
			c0-2.8540268,0.5902252-4.7475739,1.7706604-5.680872c1.1795349-0.9326134,3.4298553-1.3997192,6.7509918-1.3997192
			c3.2932739,0,5.5367432,0.4257641,6.7304382,1.2761478c1.1936951,0.8510685,1.7907562,2.6900253,1.7907562,5.5161858v0.5890388
			C224.0832672,37.6802597,223.6651001,38.0984383,223.1492462,38.0984383z M217.3117218,46.6609764
			c-0.2338867-0.3017349-0.7071686-0.4527168-1.4207306-0.4527168s-1.1868439,0.1509819-1.4198151,0.4527168
			c-0.2334442,0.3024216-0.3499298,0.8787079-0.3499298,1.7288628v5.6397591c0,0.8510704,0.1164856,1.4202766,0.3499298,1.7083054
			c0.2329712,0.2882576,0.7062531,0.4323883,1.4198151,0.4323883s1.1868439-0.150528,1.4207306-0.4529457
			c0.2329865-0.301506,0.3499298-0.8780212,0.3499298-1.7288628v-5.5986443
			C217.6616516,47.5396843,217.5447083,46.963398,217.3117218,46.6609764z"/>
		<path class="st0" d="M236.4040833,39.1276703h-4.5129089c-0.5158539,0-0.934021-0.4181786-0.934021-0.9340248v-0.9595261
			c0-2.9638939,0.5765076-4.9462929,1.729538-5.9485741c1.1521301-1.0013638,3.3613434-1.5025043,6.627655-1.5025043
			c3.2928162,0,5.5088806,0.5011406,6.6477509,1.5025043c1.1384125,1.0022812,1.7085266,2.9846802,1.7085266,5.9485741v2.4698372
			c0,1.5644035-0.2745514,2.71698-0.8231964,3.4579544c-0.1908569,0.257534-0.4379883,0.4869537-0.7414551,0.6881905
			c-0.5614471,0.3723106-0.5799561,1.2204628-0.0002899,1.5637283c0.3984985,0.2359886,0.721283,0.5213394,0.9683228,0.856102
			C247.6911774,47.107296,248,48.4039993,248,50.1600456v3.787323c0,2.9638939-0.6039276,4.9398994-1.8113251,5.9277878
			c-1.20784,0.9878922-3.4992828,1.4819489-6.8743286,1.4819489c-3.4033661,0-5.7016602-0.4940567-6.8953552-1.4819489
			c-1.1941376-0.9878883-1.7907562-2.9638939-1.7907562-5.9277878v-2.3592415c0-0.5158463,0.4181824-0.9340248,0.934021-0.9340248
			h4.8829498c0.5158386,0,0.934021,0.4181786,0.934021,0.9340248v2.4414711c0,0.8510704,0.1297455,1.4202766,0.391037,1.7083054
			c0.2603912,0.2882576,0.7473755,0.4323883,1.4613953,0.4323883c0.7131042,0,1.1936951-0.1441307,1.4408264-0.4323883
			c0.2471466-0.2880287,0.3704987-0.857235,0.3704987-1.7083054v-4.1575851c0-0.9604759-0.1991882-1.5778809-0.5966187-1.8526611
			c-0.3983612-0.2738686-1.2288666-0.411602-2.4906158-0.411602h-1.6187286c-0.5158539,0-0.9340363-0.4181747-0.9340363-0.9340248
			v-3.1540794c0-0.5158463,0.4181824-0.9340248,0.9340363-0.9340248h1.4538116c1.262207,0,2.07901-0.1852417,2.4495087-0.5557289
			c0.3704834-0.3704872,0.555954-1.1178551,0.555954-2.2434769v-2.6347504c0-0.8501549-0.1174011-1.4266739-0.3499298-1.7288628
			c-0.233902-0.3017349-0.6934662-0.4529457-1.3796234-0.4529457s-1.1457214,0.1512108-1.3787079,0.4529457
			c-0.233429,0.3021889-0.3499298,0.8787079-0.3499298,1.7288628v1.0419807
			C237.3381042,38.7094917,236.9199371,39.1276703,236.4040833,39.1276703z"/>
	</g>
	<path class="st1" d="M121.2215118,19.0064564l16.6788483-5.8676672c0.3742828-0.1316748,0.6248016-0.4851198,0.6250916-0.8818941
		l0.005127-7.221786c0.0005493-0.7746716,0.6287079-1.4023747,1.4033813-1.4023747h1.6708221
		c0.7737579,0,1.401535,0.6262908,1.4033661,1.400054l0.0133514,5.64501
		c0.0007629,0.3220863,0.3191986,0.5470629,0.6230316,0.4401741l17.3509369-6.1041117
		c0.46138-0.1623154,0.9640503-0.1640453,1.4265442-0.00491l40.844162,14.0539074
		c1.091217,0.3754692,1.6978455,1.5391483,1.3808289,2.6487446l-0.0556793,0.1948643
		c-0.3408203,1.1928673-1.6103516,1.8579159-2.7850647,1.4589539l-38.9291229-13.2214308
		c-0.4490051-0.1524992-0.9356232-0.1537552-1.3854218-0.0035734l-38.8614578,12.9752007
		c-1.1178131,0.3732204-2.3292236-0.213686-2.7291489-1.3222275l-0.0010071-0.0027981
		C119.4909973,20.65662,120.0843201,19.4065228,121.2215118,19.0064564z"/>
</g>
</svg>
