<?xml version="1.0" encoding="utf-8"?>
<!-- Generator: Adobe Illustrator 21.1.0, SVG Export Plug-In . SVG Version: 6.00 Build 0)  -->
<svg version="1.1" id="Logo" xmlns="http://www.w3.org/2000/svg" xmlns:xlink="http://www.w3.org/1999/xlink" x="0px" y="0px"
	 viewBox="0 0 1106.9447021 368.9815369" style="enable-background:new 0 0 1106.9447021 368.9815369;" xml:space="preserve">
<style type="text/css">
	.st0{display:none;fill:#9BEAD3;}
	.st1{fill:#111111;}
	.st2{fill:#F99D0B;}
	.st3{fill:#F4F4F4;}
</style>
<rect x="-154.4922791" y="-65.099144" class="st0" width="1282.3614502" height="480"/>
<g>
	<path class="st1" d="M42.0367775,151.3456116h24.4405403c2.3140564,0,4.3339615,1.5684052,4.9074402,3.8102722
		c10.9067383,42.6369476,21.8125687,85.2703705,32.5855103,127.3842773
		c1.2862701,5.0283203,8.4075012,5.1021118,9.7873764,0.0986938c1.6135025-5.8505249,3.3017197-11.792511,5.1410675-17.6873474
		c11.2416687-36.0280914,22.7026062-71.9878998,34.2019806-107.9347687
		c1.0171051-3.1794739,4.5806122-5.8122559,7.9182281-5.8738403c6.7053375-0.1237183,13.4160156-0.1083374,20.1171417,0.0954132
		c1.1938477,0.0362854,3.0500946,1.5260315,3.4009247,2.701355c14.5899963,48.8781586,29.0428162,97.7972412,43.5167389,146.710022
		c0.0763092,0.2578735,0.1708069,0.510376,0.1548157,0.4542236c-0.2297668-0.8070068,0.0156403-1.6742249,0.2372742-2.48349
		c12.8919525-47.0721893,26.0910645-95.2658234,39.29216-143.4669189c0.6028748-2.2011719,2.603302-3.7275391,4.8855591-3.7275391
		h23.4772034c3.4158325,0,5.850708,3.3172302,4.8344116,6.5783844c-0.9619141,3.0865326-1.8983459,6.0796204-2.8607483,9.0643463
		c-17.6946716,54.8791351-35.3695679,109.76474-53.2554932,164.5814819
		c-0.5375824,1.647583-3.2732849,3.5747375-5.0570984,3.6503601c-7.7104645,0.3267212-15.4395599,0.2135315-23.791214,0.1791687
		c-2.2138519-0.0090942-4.1698608-1.4566345-4.8225861-3.5720825
		c-12.9493561-41.9686279-25.8660889-83.8315125-38.2320862-123.9094543
		c-1.4950409-4.8454132-8.390152-4.7310791-9.7255859,0.1607361c-2.7708282,10.1498566-5.7958069,21.0514984-9.2784882,31.8049164
		c-10.127182,31.2694244-20.9190674,62.3237457-31.4927292,93.4477081c-0.2626038,0.7730408-1.2058334,1.8696594-1.843071,1.8774109
		c-8.5999451,0.1048279-17.2013474,0.0900269-26.0616684,0.0847473c-2.2331238-0.0013123-4.2080307-1.4648743-4.853157-3.6027832
		c-17.4713058-57.899292-34.897934-115.6505127-52.4720612-173.8905182
		C36.2079506,154.6286774,38.6402512,151.3456116,42.0367775,151.3456116z"/>
	<path class="st1" d="M512.4885254,298.9838257c12.9397583-47.2161255,26.180542-95.5307465,39.4363403-143.9000244
		c0.6031494-2.2007751,2.6035156-3.7270203,4.885437-3.7270203h23.4591064c3.4118652,0,5.8464966,3.3094025,4.8374634,6.5686798
		c-0.9638062,3.1131287-1.9065552,6.1442719-2.8805542,9.165329
		c-17.7182007,54.9555511-35.4226685,109.9156189-53.3216553,164.8122253
		c-0.5029907,1.5426025-3.0891724,3.3458862-4.7650757,3.4092407c-7.7892456,0.2947083-15.5933533,0.196106-24.011322,0.1662598
		c-2.2145996-0.0078735-4.1704102-1.4564514-4.8232727-3.5726624
		c-12.9802856-42.0749512-25.9222107-84.0256958-38.2379456-123.9465942
		c-1.4849854-4.8134766-8.3200073-4.7458954-9.7071838,0.0966797c-3.7640991,13.1401825-7.853241,27.40242-12.4068604,41.5147705
		c-8.9633179,27.7788086-18.6131592,55.336792-28.1331177,82.9327698c-0.4388123,1.2719727-2.4620972,2.8004761-3.7839355,2.8356628
		c-8.0359192,0.2138367-16.079071,0.1544495-24.3406982,0.1351929c-2.2313232-0.005188-4.1997375-1.4674072-4.8443298-3.6035767
		c-17.5019226-58.0018616-34.928772-115.7549286-52.4765015-173.9086609
		c-0.9812012-3.251709,1.4514465-6.5336151,4.8479614-6.5336151h24.4362488c2.3140564,0,4.3337708,1.567688,4.9072571,3.8095703
		c10.8633118,42.4681549,21.7390442,84.9848022,32.551239,127.2531586c1.2719421,4.9724121,8.3078003,5.1203918,9.7553711,0.196228
		c0.20578-0.6999817,0.4162292-1.399231,0.631897-2.0968628c10.7937622-34.9135284,21.7224731-69.7853546,32.6228638-104.6658936
		c1.9126892-6.1205292,3.7764587-12.2617645,5.8697205-18.3189697c1.1964722-3.4622192,5.2038574-6.3773193,8.8656921-6.4750519
		c6.3226318-0.1687469,12.6568604-0.1166382,18.9765015,0.1065063c1.3526917,0.04776,3.4812317,1.504425,3.8476868,2.7303009
		c14.6104126,48.8719025,29.0585022,97.7923431,43.5318909,146.7052307
		c0.0651855,0.2202148,0.1453247,0.4359741,0.1549072,0.4525452
		C512.7360229,301.7521362,512.2971802,299.6821594,512.4885254,298.9838257z"/>
</g>
<circle class="st1" cx="1059.3660889" cy="314.0706482" r="21.8364468"/>
<path class="st2" d="M945.0358887,109.234169c15.166626-2.666626,14.5-5,10.5,0.666687s-1.5,15.833313,3,16.166687
	c4.5,0.333313,6.666626-1.5,13,8.1666183c6.333313,9.666687,4.333313,16.833374,9.5,16.333374
	c4.2965088-0.4157715,12.6213989,8.498291,15.3054199,11.5145264c2.4291992-7.7107544-12.147583-30.8903198-6.9054565-35.7228928
	c8-7.375-1.4432983-26.0679321,2.666687-33.625c5.166626-9.5,20.666626-16.333313,31.333313-19
	c-27-9.75-32.333374-0.666626-51.833374-10.166626s-80.666626-62.833374-135.166626-37.333374
	s-73.166687,25.3333759-96.166687,50.666687s-31,47.666687-57.666687,61.3333054c-26.666626,13.666687-93,14.666687-124.666626,68
	c-4.7190552,7.947937-9.2210083,14.5557861-13.4257813,20.2546387c-0.7415161,4.864563-0.937561,14.7631226,10.1924438,13.2453613
	c0,0-14.166626,10.333374-2,11.666687c12.166687,1.333313,27.9492798,10.0200806,13.2797852,13.7553101
	c-0.0053101,0.0013428-0.0106201,0.003479-0.0159302,0.0048218c32.7792969-6.3210449,43.9633789,3.6316528,88.9694824-58.9268188
	c0,0,22.9191284-28.6542358,4.5,20c-4.0575562,10.7181396-8.2996826,16.8579102-12.5084229,20.7285156
	c4.1107788-0.6186523,10.357666,0.0820923,10.6917725,9.9381714c0.5,14.7495117,40.8155518,2.0462036,51.657959-7.1014404
	c13.4315796-11.6761475,22.7943726-30.2642822,48.1586914-72.2341309c28-46.3311157,44-22.3311157,69.5-42.8311157
	c23.5074463-18.8981247,23.2391357-15.6854172,45.3781128,5.298584c4.5338135,3.0713501,5.3961182-5.0930786,0.5864868-11.475647
	c-4.96875-6.5937347-2.78125-12.2812424,0.875-13.7499924c3.5582886-1.4294434,7.5731201-2.8009033,9.2420044-3.3596191
	c3.8676758-1.4071045,10.7515259-3.5917358,17.8034668-4.0274048c0.0058594-0.0009155,0.0109863-0.0020142,0.0168457-0.0029297
	C923.8063965,103.9334488,929.8692017,111.900856,945.0358887,109.234169z"/>
<path class="st3" d="M552.7025146,251.4008484c-12.166626-1.333313,2-11.666687,2-11.666687
	c-11.1300049,1.5177612-10.93396-8.3807983-10.1924438-13.2453613
	c-25.4544678,42.7527161-26.8981323,48.0351257-19.1362915,79.3972168c0.2149048,0.8683167,1.468689,0.8074341,1.5912476-0.0786133
	c1.3412476-9.6950684,6.6312866-31.7068787,27.2208252-37.8232422c4.2347412-1.2579651,8.1433105-2.1218262,11.7805176-2.8231812
	c0.0053101-0.0013428,0.0106201-0.003479,0.0159302-0.0048218
	C580.6517944,261.420929,564.8692017,252.7341614,552.7025146,251.4008484z"/>
<path class="st1" d="M657.6192017,256.9008484c-0.3341064-9.8560791-6.5809937-10.5568237-10.6917725-9.9381714
	c-14.1162109,12.9820557-27.8560791,0.3693848-32.9915771,48.7714844c0,0-0.9024658,18.3253784-22,27.333374
	c-14.833374,6.333313,2.166626,22.5,27.833313,4.833313c0,0,11-7.833313,13.666687-28.166687c3.253418-24.8075562,55.5-35,71.5-46.5
	c1.5061035-1.0825195,2.9456177-2.2214355,4.3413086-3.4347534
	C698.4347534,258.947052,658.1192017,271.6503601,657.6192017,256.9008484z"/>
<path class="st1" d="M872.9004517,128.5570984c4.8096313,6.3825684,3.9473267,14.5469971-0.5864868,11.475647
	c1.8765259,1.7786865,3.8948975,3.6697998,6.1218872,5.701416c28.5,26-18.5,14.5-24.5,36s16.5,12,26,8.5
	s43.2396851-21.7146606,34.5-34c-18.7333374-26.333313-39.25-41.7499924-33.5-43.9999924
	c0.5279541-0.206604,1.2338257-0.4782715,2.081604-0.7866821c-1.6688843,0.5587158-5.6837158,1.9301758-9.2420044,3.3596191
	C870.1192017,116.275856,867.9317017,121.9633636,872.9004517,128.5570984z"/>
<path class="st3" d="M921.6858521,117.109169c0,0,6.4778442,1.4831543,19.25,8.375
	c16.833313,9.0833664,29.916626,37.4999924,36.75,37.3749924c5.2625122-0.0962524,12.5625,5.125,17.625,0.875
	c0.4934082-0.4141846,0.8190918-0.9811401,1.0304565-1.6520996c-2.684021-3.0162354-11.0089111-11.9302979-15.3054199-11.5145264
	c-5.166687,0.5-3.166687-6.666687-9.5-16.333374c-6.333374-9.6666183-8.5-7.8333054-13-8.1666183c-4.5-0.333374-7-10.5-3-16.166687
	s4.666626-3.333313-10.5-0.666687c-15.166687,2.666687-21.2294922-5.3007202-44.1981201-1.8170166
	c-0.0058594,0.0009155-0.0109863,0.0020142-0.0168457,0.0029297
	C909.059021,106.911171,917.5266724,108.7907486,921.6858521,117.109169z"/>
<path class="st1" d="M996.3413086,157.2856445c0,0-3.6389771-1.7811432-4.618042-0.020462
	c-0.9790649,1.7606659-0.0209351,3.6356659,0,5.0106659s-0.3588867,2.289505,0.4122925,2.9684753
	c0.1799316,0.158432,3.5862427-0.8694611,4.2057495-3.162262
	C996.6676636,160.8742065,997.1192017,160.0675201,996.3413086,157.2856445z"/>
</svg>
