<?xml version="1.0" encoding="utf-8"?>
<!-- Generator: Adobe Illustrator 18.0.0, SVG Export Plug-In . SVG Version: 6.00 Build 0)  -->
<!DOCTYPE svg PUBLIC "-//W3C//DTD SVG 1.1//EN" "http://www.w3.org/Graphics/SVG/1.1/DTD/svg11.dtd">
<svg version="1.1" id="Слой_1" xmlns="http://www.w3.org/2000/svg" xmlns:xlink="http://www.w3.org/1999/xlink" x="0px" y="0px"
	 viewBox="0 0 50 50" style="enable-background:new 0 0 50 50;" xml:space="preserve">
<style type="text/css">
	.st0{fill:#F9F9F9;}
	.st1{fill:#3489DF;}
</style>
<g>
	<path class="st0" d="M0,33.6586494V16.3395481c0-0.4975548,0.4033471-0.9009018,0.9009008-0.9009018h17.117115
		c0.4975548,0,0.9009018,0.403347,0.9009018,0.9009018v13.863863c0,0.4975548-0.403347,0.9009018-0.9009018,0.9009018H5.1718225
		c-0.2352905,0-0.4612446,0.0920506-0.6295514,0.2564716l-3.0118186,2.9422932C0.9599496,34.8604088,0,34.4562035,0,33.6586494z"/>
	<path class="st0" d="M50,36.7597733v-23.521347c0-0.4975538-0.403347-0.9009008-0.9009018-0.9009008H21.3213234
		c-0.4975529,0-0.9008999,0.403347-0.9008999,0.9009008V31.874609c0,0.4975529,0.403347,0.9008999,0.9008999,0.9008999h22.0431404
		c0.2352905,0,0.4612427,0.0920525,0.6295509,0.2564735l4.4755325,4.3722191C49.0400505,37.9615326,50,37.5573273,50,36.7597733z"/>
	<path class="st1" d="M17.8499489,18.5797787c-0.7337418-1.2132816-2.0616541-2.0270405-3.5830107-2.0270405
		c-2.3134909,0-4.1889563,1.875433-4.1889563,4.18894c0,0.9869404,0.3434658,1.892374,0.9144735,2.6082993h-0.0021381
		l0.0056524,0.0046978c0.3539133,0.4424801,6.8539619,5.7132435,6.8539619,5.7132435L17.8499489,18.5797787z"/>
	<path class="st1" d="M21.3571625,17.5989952c0.9038486-1.4945602,2.5396137-2.4969749,4.4136715-2.4969749
		c2.8498363,0,5.1600952,2.3102207,5.1600952,5.1600761c0,1.2157459-0.4230919,2.331089-1.1264782,3.2129898h0.002634
		l-0.0069637,0.0057869c-0.4359627,0.545063-8.4429398,7.0377655-8.4429398,7.0377655L21.3571625,17.5989952z"/>
</g>
</svg>
