<?xml version="1.0" encoding="utf-8"?>
<!-- Generator: Adobe Illustrator 18.0.0, SVG Export Plug-In . SVG Version: 6.00 Build 0)  -->
<!DOCTYPE svg PUBLIC "-//W3C//DTD SVG 1.1//EN" "http://www.w3.org/Graphics/SVG/1.1/DTD/svg11.dtd">
<svg version="1.1" id="Слой_1" xmlns="http://www.w3.org/2000/svg" xmlns:xlink="http://www.w3.org/1999/xlink" x="0px" y="0px"
	 viewBox="0 0 50 50" style="enable-background:new 0 0 50 50;" xml:space="preserve">
<style type="text/css">
	.st0{fill:#F9F9F9;}
	.st1{fill:#3489DF;}
</style>
<g>
	<g>
		<path class="st0" d="M20.7870827,15.9741926c-1.0762882,0.4674597-2.9936161,1.3757582-3.9903259,2.304368
			c-0.4101772,0.3821545-1.0487776,0.3460236-1.4302969-0.0647449c-1.0844526-1.167593-3.2053432-2.9077454-5.9916649-2.5648136
			c0,0,1.3972816,0.1905384,1.4607944,4.5729218c0,0-4.5094085,2.0959225-6.8593822,6.9864082H1.0898811
			c-0.5200959,0-0.9524368,0.3924065-1.0108579,0.9092121c-0.0704479,0.6231937-0.0930161,1.4282684,0.1499286,1.948864
			c0,0-1.4184526,6.1395702,15.8146887,10.8818607c0,0,0.399828,1.6295815,0.2477818,3.6655159
			c-0.0663891,0.8889847,0.6259804,1.6512566,1.5174389,1.6512566h3.9427681c0.4241924,0,0.8292522-0.1718636,1.1160183-0.4844398
			c0.4193802-0.4571266,1.0419044-1.335659,1.8137341-3.011631c0,0,6.4359608,0.7622948,13.3800316-0.8044968
			c0,0,0.1600075,0.7769928-0.0067558,2.6306953c-0.0804672,0.8944588,0.6185837,1.6698723,1.516655,1.6698723h4.0680733
			c0.4737625,0,0.9178391-0.2183952,1.2081184-0.5928192c0.7566948-0.9760437,1.9812355-3.4953728,2.5714607-9.8473206
			c0,0,5.2927322-4.0224762,0.7198105-13.5493965c0,0,2.1382637-0.42342,1.270256-3.0486145
			s-2.9427605-1.2279148-2.9427605-1.2279148s2.3499756,0.9950333,0.6562996,2.7098789c0,0-2.5828552-3.0454559-7.4359055-4.7223492
			c-0.4180794-0.1444607-0.8826447-0.013237-1.1520691,0.3375759l-1.1407585,1.4853668
			c-0.2626877,0.3420391-0.7114792,0.4837036-1.1205406,0.3470917c-1.7388-0.5806961-6.6655827-1.8639088-12.1978359-0.0645809
			c-0.4264812,0.1387081-0.8931751-0.0328979-1.1426201-0.4055977l-0.899477-1.3439255
			C21.7607899,15.9351807,21.2365723,15.7789679,20.7870827,15.9741926z"/>
		<path class="st1" d="M33.4362221,8.6623459c0-0.5592108-0.1622849-1.000823-0.4862671-1.3250856
			c-0.3239861-0.3242626-0.7701263-0.48627-1.337244-0.48627h-1.896452v3.6470242h1.872139
			c0.5835228,0,1.037571-0.1662245,1.361557-0.4984264C33.2739372,9.6673861,33.4362221,9.2215567,33.4362221,8.6623459z"/>
		<path class="st1" d="M30.1292992,2.3233726c-4.1919079,0.2199948-7.669199,3.5790904-8.0209084,7.7620058
			c-0.2002831,2.3819876,0.5813065,4.5809002,1.9843731,6.2363091c0.1206207,0.1423149,0.316412,0.2013283,0.4986973,0.1616364
			c1.1503525-0.2504883,2.1781788-0.439415,3.1539478-0.5586863c-0.0280037-0.0449057-0.0471764-0.0935326-0.0471764-0.1505947
			v-1.2643013h-1.2642956c-0.0808487,0-0.1501293-0.0282831-0.206665-0.0850973
			c-0.0565338-0.0568142-0.0850964-0.1255379-0.0850964-0.206665v-0.9725399c0-0.0811272,0.0285625-0.1498508,0.0850964-0.206665
			c0.0565357-0.0568142,0.1258163-0.0850964,0.206665-0.0850964h1.2642956v-0.7780323h-1.2642956
			c-0.0808487,0-0.1501293-0.0282831-0.206665-0.0850973c-0.0565338-0.0568142-0.0850964-0.1255369-0.0850964-0.206665v-1.0941067
			c0-0.0811281,0.0285625-0.1498508,0.0850964-0.206665c0.0565357-0.0568142,0.1258163-0.0850973,0.206665-0.0850973h1.2642956
			V5.4651213c0-0.0811276,0.0285683-0.1498504,0.085104-0.2066646c0.0565338-0.0568142,0.1258163-0.0850973,0.206665-0.0850973
			h3.9630985c1.0375729,0,1.8842945,0.320045,2.5407619,0.9603829c0.6564636,0.6403379,0.9846954,1.4791536,0.9846954,2.5164471
			s-0.3282318,1.8842955-0.9846954,2.54076c-0.6564674,0.6564646-1.5031891,0.9846964-2.5407619,0.9846964H29.716259v0.7780323
			h3.9144745c0.0808487,0,0.1501274,0.0282822,0.2066612,0.0850964c0.0565376,0.0568142,0.0850906,0.1255379,0.0850906,0.206665
			v0.9725399c0,0.0811272-0.028553,0.1498508-0.0850906,0.206665c-0.0565338,0.0568142-0.1258125,0.0850973-0.2066612,0.0850973
			H29.716259v1.2643013c0,0.0039692-0.0019855,0.0070705-0.0021095,0.0110407
			c1.9378281-0.0266085,3.8416824,0.296257,6.309761,1.0916824c0.1800804,0.0580387,0.3845253,0.0169086,0.5185127-0.1166744
			c1.6669884-1.6619673,2.5563622-3.9675703,2.5563622-5.9380627C39.0987854,5.9696856,35.0379562,2.0657623,30.1292992,2.3233726z"
			/>
	</g>
</g>
</svg>
