<?xml version="1.0" encoding="utf-8"?>
<!-- Generator: Adobe Illustrator 18.0.0, SVG Export Plug-In . SVG Version: 6.00 Build 0)  -->
<!DOCTYPE svg PUBLIC "-//W3C//DTD SVG 1.1//EN" "http://www.w3.org/Graphics/SVG/1.1/DTD/svg11.dtd">
<svg version="1.1" id="Слой_1" xmlns="http://www.w3.org/2000/svg" xmlns:xlink="http://www.w3.org/1999/xlink" x="0px" y="0px"
	 viewBox="0 0 50 50" style="enable-background:new 0 0 50 50;" xml:space="preserve">
<style type="text/css">
	.st0{fill:#F9F9F9;}
	.st1{fill:#3489DF;}
</style>
<g>
	<path class="st0" d="M3.7960718,19.3217316H3c-1.6568543,0-3,1.3431473-3,3v14.371254c0,1.6568527,1.3431457,3,3,3h0.7960718
		c1.6568539,0,2.9999998-1.3431473,2.9999998-3v-14.371254C6.7960715,20.6648788,5.4529257,19.3217316,3.7960718,19.3217316z"/>
	<path class="st0" d="M47,19.3217316h-0.7960701c-1.6568565,0-3,1.3431473-3,3v14.371254c0,1.6568527,1.3431435,3,3,3H47
		c1.6568527,0,3-1.3431473,3-3v-14.371254C50,20.6648788,48.6568527,19.3217316,47,19.3217316z"/>
	<path class="st0" d="M41.8018417,32.2469177v-0.796072c0-1.6568546-1.3431435-3-3-3H11.1981573c-1.6568546,0-3,1.3431454-3,3
		v0.796072c0,1.6568527,1.3431454,3,3,3h27.6036835C40.4586983,35.2469177,41.8018417,33.9037704,41.8018417,32.2469177z"/>
	<path class="st0" d="M8.1981573,25.0403633v0.0000038c0,0.9383411,0.7606754,1.6990166,1.6990156,1.6990166h12.527153
		c0.9383411,0,1.6990166-0.7606754,1.6990166-1.6990166v-0.0000038c0-0.9383411-0.7606754-1.6990166-1.6990166-1.6990166H9.8971729
		C8.9588327,23.3413467,8.1981573,24.1020222,8.1981573,25.0403633z"/>
	<path class="st0" d="M25.6843586,25.0403633v0.0000038c0,0.9383411,0.7606754,1.6990166,1.6990166,1.6990166h12.7480106
		c0.938343,0,1.6990166-0.7606754,1.6990166-1.6990166v-0.0000038c0-0.9383411-0.7606735-1.6990166-1.6990166-1.6990166H27.3833752
		C26.445034,23.3413467,25.6843586,24.1020222,25.6843586,25.0403633z"/>
	<path class="st0" d="M8.1832733,13.3070164v5.3229847c0,1.6568546,1.3431463,3,3,3h9.9251862c1.6568546,0,3-1.3431454,3-3
		v-5.3229847c0-1.6568546-1.3431454-3-3-3h-9.9251862C9.5264196,10.3070164,8.1832733,11.6501617,8.1832733,13.3070164z"/>
	<path class="st0" d="M25.6694756,13.3070164v5.3229847c0,1.6568546,1.3431454,3,3,3h10.1460457c1.6568527,0,3-1.3431454,3-3
		v-5.3229847c0-1.6568546-1.3431473-3-3-3H28.6694756C27.0126209,10.3070164,25.6694756,11.6501617,25.6694756,13.3070164z"/>
	<path class="st1" d="M35.693924,23.7557068c0.8904572-1.1164532,1.4260788-2.5284367,1.4260788-4.0675259
		c0-3.6078091-2.9246788-6.5324593-6.5324612-6.5324593c-2.3725109,0-4.4432793,1.2690172-5.5875168,3.1610756
		c-1.1442375-1.8920584-3.2150555-3.1610756-5.5875416-3.1610756c-3.6077833,0-6.532485,2.9246502-6.532485,6.5324593
		c0,1.5390892,0.5356188,2.9510727,1.4260788,4.0675259h-0.003335l0.0088158,0.0073242
		C14.8634691,24.4530602,25,32.6725769,25,32.6725769s10.1364784-8.2195168,10.6883926-8.9094944l0.0088921-0.0073757H35.693924z"/>
</g>
</svg>
