<?xml version="1.0" encoding="utf-8"?>
<!-- Generator: Adobe Illustrator 21.1.0, SVG Export Plug-In . SVG Version: 6.00 Build 0)  -->
<svg version="1.1" id="Слой_1" xmlns="http://www.w3.org/2000/svg" xmlns:xlink="http://www.w3.org/1999/xlink" x="0px" y="0px"
	 viewBox="0 0 200 200" style="enable-background:new 0 0 200 200;" xml:space="preserve">
<style type="text/css">
	.st0{fill:#F9F9F9;}
	.st1{fill:#1C5C9A;}
</style>
<g>
	<path class="st0" d="M119.5181503,58.413784c-0.3631592,0-0.720314,0.0303993-1.0729599,0.0793114
		c-3.917511-21.2332649-66.3560181-21.2332649-70.2735214,0c-0.3526497-0.048912-0.7098045-0.0793114-1.0729675-0.0793114
		c-5.2825127,0-9.5648079,5.3172913-9.5648079,11.8765602s4.2822952,11.8765564,9.5648079,11.8765564
		c0.363163,0,0.7203178-0.0303955,1.0729675-0.0793076c3.9175072,21.2332611,18.1597977,36.972229,35.1367264,36.972229
		c16.9769974,0,31.2192841-15.7389679,35.136795-36.972229c0.3526459,0.048912,0.7098007,0.0793076,1.0729599,0.0793076
		c5.2825165,0,9.5648117-5.3172913,9.5648117-11.8765564S124.8006668,58.413784,119.5181503,58.413784z"/>
	<path class="st1" d="M42.4870872,43.819046C42.4870872,21.5938931,59.348465,0,83.3084259,0
		s40.3943176,21.5938931,40.3943176,43.819046c0,4.1516151,4.230011,14.8419876,2.9715424,18.6099243
		c-5.4785767,16.4032364-23.8815689,25.2091217-43.36586,25.2091217c-18.3048553,0-37.0122108-9.2260513-43.3833466-24.1002922
		C37.9567833,58.9425545,42.4870872,49.0646896,42.4870872,43.819046z"/>
	<path class="st0" d="M106.5372925,119.0598221c-6.9670258,4.3843079-22.3080521,4.330513-23.1861725,4.323822v-0.0003738
		c0,0-0.0147629,0.0001221-0.0213318,0.0001907c-0.0065689-0.0000687-0.0213318-0.0001907-0.0213318-0.0001907v0.0003738
		c-0.8781204,0.006691-16.2191467,0.0604858-23.1861687-4.323822c0,0-19.8129044,4.9413681-29.7192955,9.382164
		l5.4655952,46.1161499h47.4398689H83.35112h41.7607269c12.9381409-25.4492645-3.9711075-22.5029602,8.1019135-47.3815689
		C123.307312,122.7357712,106.5372925,119.0598221,106.5372925,119.0598221z"/>
	<path class="st0" d="M24.5530319,131.3923798c0,0-11.2728357,5.2480469-16.7384529,10.0304718
		c-5.4656172,4.7824097-0.9393196,38.6009216,22.5884132,58.7553864V174.558136L24.5530319,131.3923798z"/>
	<polygon class="st0" points="143.6864014,109.3977432 193.6455688,146.8089752 186.4719391,150.3898773 141.3806,116.9983673 	"/>
	<path class="st0" d="M183.2267303,152.5248871l-43.2125397-31.7689056l-5.2248535,20.4384003
		c-0.383255,1.4992371-0.4220276,3.0657959-0.1133881,4.5821533l2.6050568,12.7987671
		c0.5466766,2.6858063-0.0053253,5.4786835-1.5326538,7.7545776l-18.0854874,26.9495239
		c-0.6274948,0.9350433-0.3831177,2.2012024,0.5472794,2.835556l2.2817535,1.5557556
		c0.9274979,0.63237,2.1911163,0.401001,2.8343658-0.5189972l18.0865784-25.8680115
		c1.7631378-2.5216827,4.5660095-4.1177216,7.6343689-4.3472137l12.5634308-0.9396667
		c1.8505859-0.1384125,3.6288452-0.7767181,5.1450043-1.8468018L183.2267303,152.5248871z"/>
</g>
</svg>
