<?xml version="1.0" encoding="utf-8"?>
<!-- Generator: Adobe Illustrator 21.1.0, SVG Export Plug-In . SVG Version: 6.00 Build 0)  -->
<svg version="1.1" id="Слой_1" xmlns="http://www.w3.org/2000/svg" xmlns:xlink="http://www.w3.org/1999/xlink" x="0px" y="0px"
	 viewBox="0 0 200 200" style="enable-background:new 0 0 200 200;" xml:space="preserve">
<style type="text/css">
	.st0{fill:#F9F9F9;}
	.st1{fill:#1C5C9A;}
</style>
<g>
	<path class="st0" d="M0,140.4199982v-69.168396c0-1.9871063,1.6108725-3.5979843,3.5979846-3.5979843h68.3617096
		c1.9871063,0,3.5979843,1.610878,3.5979843,3.5979843v55.368988c0,1.9871063-1.610878,3.5979767-3.5979843,3.5979767H20.6550331
		c-0.9396935,0-1.8421001,0.3676453-2.5142784,1.024292l-12.0284901,11.750824C3.8338108,145.2195435,0,143.6052399,0,140.4199982z"
		/>
	<path class="st0" d="M199.6881409,152.8051453V58.8664627c0-1.987114-1.6108704-3.5979881-3.5979767-3.5979881H85.1523132
		c-1.987114,0-3.5979843,1.6108742-3.5979843,3.5979881v74.4284897c0,1.9871216,1.6108704,3.5979919,3.5979843,3.5979919h88.0350647
		c0.9396973,0,1.8421021,0.36763,2.5142822,1.024292L193.575882,155.37883
		C195.8543396,157.6046906,199.6881409,155.990387,199.6881409,152.8051453z"/>
	<path class="st1" d="M71.2884598,80.198555c-2.9303894-4.8455582-8.2337532-8.0955124-14.3096924-8.0955124
		c-9.2395363,0-16.7296944,7.4900284-16.7296944,16.7296295c0,3.9416046,1.3717194,7.5576935,3.6521873,10.4169312h-0.0085411
		l0.0225792,0.0187607c1.4134445,1.7671585,27.3731003,22.8173447,27.3731003,22.8173447L71.2884598,80.198555z"/>
	<path class="st1" d="M85.2954407,76.2815399c3.6097565-5.9689255,10.1426163-9.9723206,17.6271591-9.9723206
		c11.3815689,0,20.6082001,9.2264709,20.6082001,20.6081161c0,4.8554001-1.6897354,9.3098221-4.4988861,12.8319244h0.0105209
		l-0.0278168,0.0231018c-1.741127,2.176857-33.7190933,28.1071701-33.7190933,28.1071701L85.2954407,76.2815399z"/>
</g>
</svg>
