<?xml version="1.0" encoding="utf-8"?>
<!-- Generator: Adobe Illustrator 21.1.0, SVG Export Plug-In . SVG Version: 6.00 Build 0)  -->
<svg version="1.1" id="Слой_1" xmlns="http://www.w3.org/2000/svg" xmlns:xlink="http://www.w3.org/1999/xlink" x="0px" y="0px"
	 viewBox="0 0 200 200" style="enable-background:new 0 0 200 200;" xml:space="preserve">
<style type="text/css">
	.st0{fill:#F9F9F9;}
	.st1{fill:#1C5C9A;}
</style>
<g>
	<path class="st0" d="M24.1842861,79.3300934H3c-1.6568543,0-3,1.3431473-3,3v75.4850006c0,1.6568604,1.3431457,3,3,3h21.1842861
		c1.6568546,0,3-1.3431396,3-3V82.3300934C27.1842861,80.6732407,25.8411407,79.3300934,24.1842861,79.3300934z"/>
	<path class="st0" d="M197,79.3300934h-21.1842804c-1.6568604,0-3,1.3431473-3,3v75.4850006c0,1.6568604,1.3431396,3,3,3H197
		c1.6568604,0,3-1.3431396,3-3V82.3300934C200,80.6732407,198.6568604,79.3300934,197,79.3300934z"/>
	<path class="st0" d="M167.2073669,140.030838V118.84655c0-1.6568604-1.3431396-3-3-3H35.7926292c-1.6568565,0-3,1.3431396-3,3
		v21.184288c0,1.6568451,1.3431435,3,3,3h128.4147339C165.8642273,143.030838,167.2073669,141.6876831,167.2073669,140.030838z"/>
	<path class="st0" d="M32.7926292,98.4085541v7.5921402c0,1.6568604,1.3431435,3,3,3h57.7007408c1.6568527,0,3-1.3431396,3-3
		v-7.5921402c0-1.6568527-1.3431473-3-3-3H35.7926292C34.1357727,95.4085541,32.7926292,96.7517014,32.7926292,98.4085541z"/>
	<path class="st0" d="M102.7374344,98.4085541v7.5921402c0,1.6568604,1.3431473,3,3,3h58.5841751c1.6568604,0,3-1.3431396,3-3
		v-7.5921402c0-1.6568527-1.3431396-3-3-3h-58.5841751C104.0805817,95.4085541,102.7374344,96.7517014,102.7374344,98.4085541z"/>
	<path class="st0" d="M32.7330933,46.2712288v39.2919426c0,1.6568527,1.3431473,3,3,3h57.7007446c1.6568527,0,3-1.3431473,3-3
		V46.2712288c0-1.6568527-1.3431473-3-3-3H35.7330933C34.0762405,43.2712288,32.7330933,44.6143761,32.7330933,46.2712288z"/>
	<path class="st0" d="M102.6779022,46.2712288v39.2919426c0,1.6568527,1.3431473,3,3,3h58.5841827c1.6568451,0,3-1.3431473,3-3
		V46.2712288c0-1.6568527-1.3431549-3-3-3h-58.5841827C104.0210495,43.2712288,102.6779022,44.6143761,102.6779022,46.2712288z"/>
	<path class="st1" d="M142.7756958,97.0659866c3.5618286-4.4658051,5.7043152-10.1137466,5.7043152-16.2700958
		c0-14.4312363-11.6987152-26.1298409-26.1298447-26.1298409c-9.4900436,0-17.7731171,5.0760689-22.3500671,12.6443062
		C95.4231491,59.7421188,87.1398773,54.66605,77.6499329,54.66605c-14.4311333,0-26.12994,11.6986046-26.12994,26.1298409
		c0,6.1563492,2.1424751,11.8042908,5.7043152,16.2700958h-0.01334l0.0352631,0.0293045
		C59.4538765,99.8554001,100,132.7334595,100,132.7334595s40.5459137-32.8780594,42.7535706-35.63797l0.0355682-0.0295029
		H142.7756958z"/>
</g>
</svg>
