<?xml version="1.0" encoding="utf-8"?>
<!-- Generator: Adobe Illustrator 21.1.0, SVG Export Plug-In . SVG Version: 6.00 Build 0)  -->
<svg version="1.1" id="Слой_1" xmlns="http://www.w3.org/2000/svg" xmlns:xlink="http://www.w3.org/1999/xlink" x="0px" y="0px"
	 viewBox="0 0 200 200" style="enable-background:new 0 0 200 200;" xml:space="preserve">
<style type="text/css">
	.st0{fill:#F9F9F9;}
	.st1{fill:#1C5C9A;}
</style>
<g>
	<path class="st0" d="M83.2650223,65.5650787c-4.3177109,1.8752899-12.0093918,5.5190811-16.0078506,9.2443542
		c-1.6455002,1.5330734-4.2073441,1.3881302-5.7378731-0.2597351c-4.3504601-4.6839981-12.8587646-11.6649017-24.0365524-10.2891769
		c0,0,5.6054268,0.7643814,5.860218,18.3450317c0,0-18.0902367,8.4081421-27.5175438,28.0271301H4.2464466
		c-2.0864508,0-3.8208575,1.5742035-4.0552235,3.6474533c-0.2826135,2.5000458-0.3731493,5.7297363,0.6014635,7.8181915
		c0,0-5.6903567,24.6298981,63.4432297,43.6543732c0,0,1.603981,6.5373535,0.9940186,14.704834
		c-0.2663345,3.5662994,2.5112305,6.6242828,6.0874557,6.6242828h15.81707c1.7017136,0,3.3266754-0.6894684,4.4770889-1.9434052
		c1.6824188-1.833847,4.1797714-5.3582153,7.2760925-12.081665c0,0,25.818924,3.058075,53.6762009-3.2273712
		c0,0,0.6419067,3.1170349-0.0270996,10.5534668c-0.3227997,3.5882721,2.4815521,6.6989746,6.0843048,6.6989746h16.3197479
		c1.900589,0,3.6820679-0.8761292,4.8465729-2.3781891c3.0355988-3.9155579,7.9480591-14.0222626,10.3158417-39.5041504
		c0,0,21.232666-16.1368256,2.8876343-54.3556442c0,0,8.5780029-1.698616,5.0958557-12.2300186
		c-3.4821625-10.5314102-11.8053741-4.9259872-11.8053741-4.9259872s9.4273071,3.991745,2.6328583,10.8711319
		c0,0-10.361557-12.2173462-29.830368-18.9444885c-1.6772003-0.5795288-3.5408783-0.0531006-4.6217194,1.3542404
		l-4.576355,5.9588013c-1.0538025,1.372139-2.8542023,1.9404526-4.495224,1.3924179
		c-6.9754791-2.329567-26.7400818-7.4773788-48.9336319-0.2590866c-1.7108994,0.5564575-3.5831146-0.1319733-4.5838013-1.6271133
		l-3.6084061-5.3913879C87.1712112,65.408577,85.068222,64.7818985,83.2650223,65.5650787z"/>
	<path class="st1" d="M120.7428665,10.8025618c-16.8165283,0.8825455-30.7662659,14.3581133-32.1772003,31.1385651
		c-0.8034668,9.5557365,2.3320084,18.3770409,7.96064,25.0179863c0.4838943,0.5709152,1.2693405,0.807663,2.0006027,0.6484299
		c4.6148376-1.0048752,8.738121-1.7627792,12.6525803-2.2412643c-0.1123352-0.1801453-0.1892548-0.3752213-0.1892548-0.6041336
		v-5.0719566h-5.0719223c-0.3243408,0-0.602272-0.1134605-0.829071-0.3413811
		c-0.226799-0.2279167-0.3413849-0.5036125-0.3413849-0.8290672v-3.9015045c0-0.3254585,0.1145859-0.6011505,0.3413849-0.829071
		s0.5047302-0.3413811,0.829071-0.3413811h5.0719223V50.32658h-5.0719223c-0.3243408,0-0.602272-0.1134605-0.829071-0.3413811
		c-0.226799-0.2279167-0.3413849-0.5036125-0.3413849-0.8290672v-4.3891945c0-0.3254547,0.1145859-0.6011505,0.3413849-0.8290672
		c0.226799-0.2279205,0.5047302-0.3413811,0.829071-0.3413811h5.0719223V23.4062042
		c0-0.3254566,0.1146088-0.6011486,0.3414154-0.8290691c0.226799-0.2279186,0.5047302-0.3413811,0.8290634-0.3413811h15.8986282
		c4.1623993,0,7.5591736,1.2839127,10.192688,3.8527355s3.9502716,5.9338684,3.9502716,10.0951424
		s-1.3167572,7.5591621-3.9502716,10.1926765s-6.0302887,3.9502716-10.192688,3.9502716h-8.9734573v3.1212044h15.7035599
		c0.3243256,0,0.6022644,0.1134605,0.829071,0.3413811c0.2267914,0.2279205,0.3413391,0.5036125,0.3413391,0.829071v3.9015045
		c0,0.3254547-0.1145477,0.6011505-0.3413391,0.8290672c-0.2268066,0.2279205-0.5047455,0.3413811-0.829071,0.3413811h-15.7035599
		v5.0719566c0,0.0159225-0.0079575,0.0283661-0.008461,0.0442886c7.7739105-0.1067429,15.4115448,1.1884842,25.3126373,4.3794708
		c0.7224274,0.2328262,1.5426025,0.0678329,2.0801086-0.4680634c6.6873932-6.6672554,10.2552795-15.9165611,10.2552795-23.8215179
		C156.7254486,25.4303474,140.4347534,9.7691154,120.7428665,10.8025618z"/>
	<path class="st1" d="M134.4996033,36.1376305c0-2.2433662-0.6510468-4.0149689-1.9507599-5.3157997
		c-1.2997131-1.3008327-3.0894775-1.9507523-5.3645706-1.9507523h-7.6079254v14.6306381h7.5103912
		c2.3409042,0,4.1623917-0.6668358,5.4621048-1.9995193S134.4996033,38.3809929,134.4996033,36.1376305z"/>
</g>
</svg>
