<?xml version="1.0" encoding="utf-8"?>
<!-- Generator: Adobe Illustrator 21.1.0, SVG Export Plug-In . SVG Version: 6.00 Build 0)  -->
<svg version="1.1" id="Слой_1" xmlns="http://www.w3.org/2000/svg" xmlns:xlink="http://www.w3.org/1999/xlink" x="0px" y="0px"
	 viewBox="0 0 200 200" style="enable-background:new 0 0 200 200;" xml:space="preserve">
<style type="text/css">
	.st0{fill:#F9F9F9;}
	.st1{fill:#1C5C9A;}
</style>
<g>
	<g>
		<path class="st0" d="M38.8814011,147.3322449c0,0-21.2467995,12.2627411-19.2760029,21.678772
			s56.0043945,31.3137817,60.7393341,29.5619659c4.7349396-1.7518311,19.9512405-6.7883148,23.1824799-15.3284302
			c3.2312317-8.5401306-8.7982559-9.8539886-15.1557388-19.7079773l-6.3574829-9.6350098
			c-8.8022537-1.6472931-16.4015121-4.3035889-22.1167297-8.5401306l-10.5109215,4.1605835
			C49.3863411,149.5220184,42.4829521,145.0613708,38.8814011,147.3322449z"/>
		<path class="st0" d="M65.8826523,145.3614349c2.5627213,1.7439117,5.7816086,2.9299927,9.6350098,3.5766449
			c0,0,62.3355942-132.7733765,75.2552719-133.8682556c0,0,33.1708832-5.2554598,29.2861328-12.700695
			s-34.5415955,5.0364828-34.5415955,5.0364828s-5.78862,3.1279302-16.2519379,17.1113682
			S65.8826523,145.3614349,65.8826523,145.3614349z"/>
		<path class="st0" d="M58.802372,106.602417c0,0-3.3116035,7.9069138,7.0802803,12.9196777
			s13.7225876,0.2189789,16.13134-3.7226181s25.4013901-49.7078934,25.4013901-49.7078934
			s-8.4497452-16.2003136-22.2453308-10.068943L58.802372,106.602417z"/>
		<path class="st1" d="M94.2037354,53.1719055c0,0,6.5693283,1.4598503,8.613121,4.5255356l22.8283081-38.2480698
			c-1.0970383-3.4518728-3.6253052-5.2012367-8.0695419-4.6715202L94.2037354,53.1719055z"/>
		<path class="st1" d="M120.7534409,13.1720142c0,0,3.9611664,0.6569328,4.8370743,2.7007227l9.2569427-6.7742224
			c0.7959747-0.5824928,1.7345276-0.9391165,2.7164764-1.0321751l5.0703278,0.1786833
			c0.6417542-0.9972672,2.0282745-1.6539927,3.7591095-2.1532812c0-0.6569324-7.8454437-1.5053296-12.3085175-1.2746277
			c-1.2012329-0.0254507-2.3774567,0.3449855-3.3473206,1.0541787L120.7534409,13.1720142z"/>
		<path class="st1" d="M59.7512779,112.2958374c1.6788254-3.6131287,17.9993095,2.1894226,16.502964,7.1894073
			l-11.8314514,25.0002899c-1.38834-0.1353149-2.4982414-0.5784302-3.2116661-1.4598541l1.2252617-3.7370453
			c0.1556587-0.474762,0.245594-0.9685974,0.2672958-1.4677734l0.426857-9.817627
			c0.0338669-0.7789383-0.099041-1.5561218-0.3898277-2.279541l-2.2215462-5.5267792
			c-0.2185402-0.5436783-0.3483734-1.1189194-0.3845482-1.7037582L59.7512779,112.2958374z"/>
	</g>
	<path class="st1" d="M24.5201607,161.6707306c0,0-3.6545391,5.8590698,4.7294006,10.3460999
		s23.6918755,13.6012115,47.1014824,22.0499878c0,0,4.2770233,0.7097321,10.2962646-3.1597748
		s-2.1497269-1.0748596-5.0160294-0.2149811c-2.8663101,0.8598938-21.6406021-7.3944244-32.3892441-12.7977295
		s-23.2170658-9.8460693-22.7871189-14.2888489C26.884861,159.1627197,27.7447529,155.8664703,24.5201607,161.6707306z"/>
	<path class="st0" d="M180.013382,108.2420578l-7.9783325-20.4727631c-1.2303467-3.157196-5.0646362-4.3675385-7.8847504-2.4889221
		l-9.0699158,6.0421524c-1.4767609,0.983757-2.3640137,2.6408005-2.3640137,4.4153061v8.0046463
		c0,1.7243195-0.8380432,3.3411331-2.2469635,4.3351593l-21.357254,15.0668182
		c-1.4089279,0.9940338-2.2469635,2.6108475-2.2469635,4.3351669v16.9917374c0,1.0664825,0.3215485,2.1082916,0.9223938,2.9893951
		l2.7974396,4.1014404c0.6008453,0.8811035,0.9223938,1.9228973,0.9223938,2.9894714v40.1429443
		c0,2.9300385,2.3751831,5.3053894,5.3053894,5.3053894h36.8061829c2.9302063,0,5.3054047-2.375351,5.3054047-5.3053894v-76.3885269
		c0-0.3588638,0.0364227-0.7168427,0.1087952-1.0683441l1.2335815-6.0008698
		C180.4727173,110.2350616,180.3847961,109.1950455,180.013382,108.2420578z M145.9395599,122.6646423l-9.91362,22.1315918
		c-0.8063049,1.7999268-3.2252045,2.1217957-4.4741669,0.5953369l-0.6605835-0.8074341
		c-0.3877716-0.4739838-0.5997009-1.0674591-0.5997009-1.6797943v-13.7200775c0-0.853653,0.4109192-1.6551819,1.1042023-2.1536102
		l10.5743713-7.6041641C144.1705475,117.844162,147.0476532,120.1911774,145.9395599,122.6646423z"/>
	<path class="st1" d="M154.727356,88.8371048l7.5625458-4.9813995c0.99823-0.6575317,1.1954193-2.0406265,0.4207001-2.9509201
		l-1.7265472-2.0286942c-0.0872192-0.1024857-0.1846161-0.1958542-0.2906799-0.2786713l-4.7475281-3.7069778
		c-0.6818237-0.5323715-1.6295166-0.5631714-2.3444519-0.0761795l-3.4402313,2.3433456
		c-0.655426,0.4464493-0.9831238,1.2394943-0.8340149,2.0183792l0.9596405,5.012764
		c0.0254059,0.1326904,0.0642548,0.2624512,0.1159515,0.3872681l1.3921204,3.3609619
		C152.272934,89.0911789,153.6840515,89.5243225,154.727356,88.8371048z"/>
</g>
</svg>
